<svg xmlns="http://www.w3.org/2000/svg" xmlns:xlink="http://www.w3.org/1999/xlink" version="1.1" x="0px" y="0px" viewBox="0 0 468 585" style="enable-background:new 0 0 468 468;" xml:space="preserve"><g><g><ellipse cx="81.556" cy="319.574" rx="15.528" ry="15.531"/><ellipse cx="380.934" cy="319.574" rx="15.528" ry="15.531"/><ellipse cx="128.139" cy="359.937" rx="13.457" ry="13.46"/><ellipse cx="66.029" cy="388.559" rx="12.422" ry="12.425"/><ellipse cx="306.585" cy="353.356" rx="13.457" ry="13.46"/><ellipse cx="360.177" cy="380.276" rx="12.422" ry="12.425"/><g><path d="M352.125,87.956c5.137,0,9.317-4.181,9.317-9.319s-4.179-9.319-9.317-9.319c-5.137,0-9.317,4.181-9.317,9.319     S346.988,87.956,352.125,87.956z"/><path d="M233.751,113.589c-8.143-6.145-13.865-15.131-15.906-25.224c-5.419-1.744-11.081-1.887-16.452-0.478l4.466,7.336     c1.948,3.201,0.536,7.523-2.912,8.963l-7.924,3.309C204.374,118.916,221.34,121.52,233.751,113.589z"/><path d="M248.477,210.589c-5.137,0-9.317,4.181-9.317,9.319s4.179,9.319,9.317,9.319s9.317-4.181,9.317-9.319     S253.615,210.589,248.477,210.589z"/><path d="M213.035,130.385c-3.331,4.616-5.218,9.959-5.539,15.501l8.355-1.981c3.646-0.865,7.319,1.818,7.623,5.54l0.698,8.561     c13.747-5.362,21.467-20.701,17.762-34.957C233.574,128.896,223.257,131.559,213.035,130.385z"/><path d="M99.105,161.363c-5.668-4.805-9.698-11.373-11.357-18.696c-3.227-0.92-6.556-1.088-9.783-0.52l2.568,4.217     c1.949,3.203,0.541,7.521-2.912,8.963l-4.555,1.903C79.769,164.169,90.579,165.846,99.105,161.363z"/><path d="M117.707,124.789l-3.217,3.746c-2.442,2.841-6.982,2.841-9.424,0l-3.217-3.746c-4.528,8.527-2.78,19.324,4.116,26.047     c2.818-6.877,7.818-12.738,14.268-16.579C120.113,130.902,119.244,127.684,117.707,124.789z"/><path d="M118.733,166.662c1.761,7.22,1.162,14.903-1.8,21.803c2.07,2.643,4.664,4.735,7.608,6.172l0.401-4.922     c0.305-3.729,3.979-6.404,7.623-5.54l4.804,1.14C136.025,175.753,128.261,168.047,118.733,166.662z"/><path d="M141.937,155.327c-2.968-1.239-4.714-4.671-3.348-8.248l3.003-4.933c-9.513-1.675-19.234,3.328-23.495,11.964     c7.41,0.556,14.529,3.5,20.174,8.45c3.153-1.153,5.944-2.974,8.221-5.33L141.937,155.327z"/><path d="M254.658,64.16l-5.594,6.515c-2.439,2.837-6.984,2.838-9.424,0l-5.594-6.515c-7.977,12.433-5.2,29.369,6.173,38.722     c3.327-9.644,10.103-17.864,19.069-22.925C259.27,74.264,257.656,68.833,254.658,64.16z"/><path d="M143.667,60.724c-5.137,0-9.317,4.181-9.317,9.319s4.179,9.319,9.317,9.319s9.317-4.181,9.317-9.319     S148.804,60.724,143.667,60.724z"/><path d="M381.853,207.511c-4.013-5.526-10.123-8.987-16.699-9.753c2.089,7.929,1.472,16.424-1.851,24.009     c2.43,3.173,5.544,5.64,9.094,7.252l0.484-5.939c0.304-3.714,3.963-6.411,7.623-5.54l5.797,1.375     C385.837,214.777,384.213,210.912,381.853,207.511z"/><path d="M390.845,185.71c-2.968-1.239-4.715-4.672-3.347-8.25l3.534-5.804c-10.83-2.219-22.057,3.56-26.653,13.579     c8.184,0.463,16.072,3.675,22.257,9.18c3.769-1.331,7.076-3.53,9.706-6.41L390.845,185.71z"/><path d="M85.706,176.169c-1.873,2.786-3.061,5.9-3.517,9.146l4.804-1.14c3.649-0.866,7.318,1.81,7.623,5.54l0.401,4.922     c8.669-4.232,13.606-14,11.976-23.493C100.673,175.052,93.186,176.856,85.706,176.169z"/><path d="M364.745,152.553l-3.882,4.52c-2.438,2.838-6.985,2.839-9.424,0l-3.882-4.52c-5.455,9.608-3.429,22.082,4.676,29.549     c2.969-7.641,8.461-14.152,15.605-18.335C367.738,159.77,366.669,155.945,364.745,152.553z"/><path d="M417.277,193.665C431.49,183.606,440,167.171,440,149.861c0-23.227-14.861-43.718-36.982-50.99     c-3.199-1.052-4.977-4.462-4.009-7.688c1.502-5.004,2.263-10.191,2.263-15.417c0-29.607-24.16-53.695-53.855-53.695     c-4.146,0-8.324,0.489-12.42,1.452c-2.633,0.62-5.337-0.567-6.715-2.895C320.748,7.904,306.88,0,292.091,0     c-12.718,0-24.625,5.665-32.65,15.539c-2.258,2.778-6.377,2.973-8.991,0.525C241.352,7.543,229.475,2.85,217.008,2.85     c-16.453,0-31.704,8.189-40.796,21.905c-1.663,2.506-4.881,3.462-7.64,2.269c-5.185-2.241-10.693-3.378-16.373-3.378     c-19.013,0-35.464,12.838-40.006,31.22c-0.819,3.312-4.295,5.388-7.603,4.519c-4.059-1.063-8.25-1.602-12.459-1.602     c-26.947,0-48.87,21.857-48.87,48.722c0,10.566,3.337,20.62,9.652,29.07c2.186,2.926,1.377,7.034-1.725,8.961     C36.669,153.558,28,169.102,28,186.12c0,26.999,22.033,48.965,49.114,48.965c5.527,0,10.974-0.921,16.192-2.736     c5.044-1.752,9.906,3.556,7.698,8.431c-1.767,3.901-2.663,8.053-2.663,12.341c0,16.568,13.523,30.047,30.145,30.047     c9.017,0,17.491-3.979,23.246-10.916c3.102-3.737,9.308-2.48,10.721,2.155c3.34,10.955,9.915,20.557,18.711,27.647     c-7.193-26.633-19.908-53.852-38.627-82.767c-3.165-4.889,1.862-11.195,7.328-9.218c2.477,0.897,58.019,21.579,83.423,77.578     c12.983-13.3,43.589-38.186,87.559-33.935c5.935,0.575,7.628,8.752,2.392,11.629c-16.194,8.897-29.575,21.174-39.842,36.539     c8.04,5.755,17.687,8.877,27.663,8.877c19.902,0,37.854-12.519,44.67-31.152c1.163-3.175,4.65-4.836,7.846-3.742     c4.988,1.709,10.188,2.576,15.455,2.576c26.21,0,47.533-21.259,47.533-47.389c0-10.59-3.437-20.611-9.938-28.98     C414.775,199.69,414.8,196.149,417.277,193.665z M161.518,157.211c-3.36,6.775-8.705,12.125-15.332,15.445     c3.41,6.581,4.59,14.052,3.327,21.51c-0.591,3.484-4.112,5.825-7.557,5.007l-5.222-1.239l-0.436,5.35     c-0.287,3.527-3.592,6.157-7.097,5.641c-7.481-1.103-14.219-4.534-19.424-9.812c-5.205,5.278-11.943,8.709-19.424,9.812     c-3.504,0.516-6.809-2.114-7.097-5.641l-0.436-5.35l-5.222,1.239c-3.445,0.816-6.966-1.521-7.557-5.007     c-1.263-7.457-0.083-14.928,3.327-21.51c-6.626-3.32-11.971-8.67-15.332-15.445c-1.574-3.173-0.091-7.132,3.171-8.493     l4.952-2.069l-2.791-4.584c-1.841-3.025-0.706-7.096,2.426-8.735c6.701-3.505,14.169-4.691,21.48-3.481     c1.109-7.33,4.544-14.068,9.947-19.358c2.528-2.473,6.754-2.289,9.057,0.392l3.497,4.072l3.497-4.072     c2.303-2.682,6.529-2.865,9.057-0.392c5.403,5.29,8.838,12.028,9.947,19.358c7.313-1.21,14.78-0.024,21.48,3.481     c3.132,1.639,4.267,5.71,2.426,8.735l-2.791,4.584l4.952,2.069C161.609,150.079,163.092,154.038,161.518,157.211z      M143.667,91.786c-11.986,0-21.739-9.754-21.739-21.743s9.752-21.743,21.739-21.743s21.739,9.754,21.739,21.743     S155.653,91.786,143.667,91.786z M352.125,56.894c11.986,0,21.739,9.754,21.739,21.743s-9.752,21.743-21.739,21.743     c-11.986,0-21.739-9.754-21.739-21.743S340.139,56.894,352.125,56.894z M248.477,241.651c-11.986,0-21.739-9.754-21.739-21.743     s9.752-21.743,21.739-21.743c11.986,0,21.739,9.754,21.739,21.743S260.464,241.651,248.477,241.651z M293.081,154.672     c-0.59,3.481-4.119,5.824-7.557,5.007l-8.502-2.016l-0.71,8.71c-0.287,3.522-3.601,6.156-7.097,5.641     c-9.701-1.43-18.373-6.076-24.864-13.221c-6.491,7.144-15.163,11.791-24.864,13.221c-3.494,0.514-6.81-2.118-7.097-5.641     l-0.71-8.71l-8.502,2.016c-3.437,0.814-6.966-1.524-7.557-5.008c-1.637-9.669,0.101-19.355,4.888-27.737     c-8.799-3.967-15.897-10.781-20.255-19.567c-1.57-3.165-0.09-7.132,3.171-8.493l8.063-3.367l-4.544-7.464     c-1.836-3.018-0.704-7.097,2.426-8.735c8.687-4.546,18.433-5.887,27.885-3.923c1.053-9.597,5.339-18.454,12.346-25.314     c2.523-2.47,6.756-2.286,9.056,0.392l5.692,6.629l5.692-6.629c2.3-2.678,6.531-2.862,9.056-0.392     c7.007,6.86,11.293,15.717,12.346,25.314c9.453-1.964,19.199-0.623,27.885,3.922c3.13,1.638,4.263,5.717,2.426,8.735     l-4.544,7.464l8.063,3.367c3.26,1.361,4.741,5.327,3.171,8.493c-4.358,8.786-11.456,15.6-20.255,19.567     C292.98,135.317,294.718,145.003,293.081,154.672z M411.28,187.948c-3.632,7.327-9.459,13.076-16.68,16.578     c3.784,7.078,5.119,15.154,3.753,23.218c-0.59,3.482-4.119,5.823-7.557,5.007l-6.122-1.451l-0.511,6.272     c-0.287,3.522-3.601,6.156-7.097,5.641c-8.088-1.192-15.355-4.958-20.917-10.745c-5.562,5.786-12.829,9.552-20.917,10.745     c-3.494,0.514-6.81-2.118-7.097-5.641l-0.511-6.272l-6.122,1.452c-3.437,0.814-6.966-1.523-7.557-5.007     c-1.366-8.064-0.031-16.14,3.753-23.218c-7.22-3.502-13.047-9.251-16.68-16.578c-1.57-3.165-0.089-7.131,3.171-8.492l5.805-2.424     l-3.272-5.375c-1.836-3.017-0.705-7.098,2.426-8.736c7.244-3.792,15.335-5.018,23.236-3.606     c1.098-7.951,4.764-15.27,10.608-20.99c2.524-2.47,6.754-2.287,9.056,0.392l4.099,4.774l4.099-4.774     c2.3-2.678,6.532-2.864,9.056-0.392c5.844,5.72,9.51,13.039,10.608,20.99c7.901-1.412,15.993-0.186,23.236,3.605     c3.13,1.637,4.263,5.717,2.426,8.736l-3.272,5.375l5.805,2.424C411.368,180.816,412.85,184.783,411.28,187.948z"/><path d="M253.457,118.189c2.976,9.758,2.324,20.393-1.954,29.758c3.359,4.596,7.856,8.042,13.029,10.059l0.698-8.561     c0.304-3.724,3.977-6.407,7.623-5.54l8.355,1.981C280.354,131.135,268.152,119.07,253.457,118.189z"/><path d="M330.086,208.023c-2.267,3.294-3.651,7.016-4.086,10.892l5.797-1.375c3.646-0.865,7.319,1.818,7.623,5.54l0.484,5.939     c10.054-4.565,15.751-15.845,13.582-26.655C346.594,206.801,338.318,208.84,330.086,208.023z"/><path d="M345.501,192.689c-6.35-5.186-10.843-12.422-12.611-20.511c-3.832-1.139-7.801-1.304-11.62-0.521l3.099,5.09     c1.948,3.201,0.536,7.524-2.912,8.964l-5.497,2.296C323.402,196.156,335.893,198.094,345.501,192.689z"/><path d="M285.756,104.186c-2.967-1.239-4.713-4.667-3.349-8.246l4.902-8.054c-14.298-3.749-29.534,4.134-34.912,17.838     c10.201,0.184,20.108,4.089,27.692,11.055c5.407-1.776,10.074-4.988,13.591-9.285L285.756,104.186z"/></g></g><path d="M429.192,455.575H393.1c2.233-25.596,21.869-38.375,22.772-38.948c2.895-1.822,3.774-5.644,1.961-8.548   c-1.816-2.911-5.646-3.797-8.557-1.981c-0.813,0.507-13.893,8.885-22.147,25.496c-7.747-16.306-20.464-24.888-21.263-25.414   c-2.866-1.889-6.719-1.094-8.603,1.771c-1.887,2.865-1.094,6.718,1.771,8.605c0.218,0.144,20.305,13.693,21.506,39.018h-60.938   c2.233-25.596,21.869-38.375,22.772-38.948c2.895-1.822,3.774-5.644,1.961-8.548c-1.817-2.911-5.647-3.797-8.557-1.981   c-0.813,0.507-13.893,8.885-22.147,25.496c-7.747-16.306-20.464-24.888-21.263-25.414c-2.866-1.889-6.719-1.094-8.603,1.771   c-1.887,2.865-1.094,6.718,1.771,8.605c0.218,0.144,20.305,13.693,21.506,39.018h-37.899   c-18.765-32.07-25.01-74.275-16.235-113.033c7.071-31.238,23.242-57.591,46.317-76.057c-39.232,5.438-62.652,36.138-62.922,36.499   c-2.9,3.879-9.15,2.956-10.808-1.59c-13.498-36.977-42.182-59.155-61.244-70.389c19.558,34.074,31.029,66.489,34.943,98.583   c5.072,41.582-2.222,82.889-22.29,125.987h-35.352c2.232-25.596,21.869-38.375,22.771-38.948c2.895-1.822,3.774-5.644,1.961-8.548   c-1.817-2.911-5.647-3.797-8.557-1.981c-0.813,0.507-13.892,8.885-22.147,25.496c-7.747-16.306-20.464-24.888-21.263-25.414   c-2.866-1.889-6.719-1.094-8.603,1.771c-1.887,2.865-1.094,6.718,1.771,8.605c0.218,0.144,20.305,13.693,21.506,39.018H70.125   c2.233-25.596,21.869-38.375,22.771-38.948c2.896-1.822,3.774-5.644,1.961-8.548c-1.816-2.911-5.647-3.797-8.558-1.981   c-0.813,0.507-13.892,8.885-22.146,25.496c-7.747-16.306-20.464-24.888-21.263-25.414c-2.866-1.889-6.717-1.094-8.603,1.771   c-1.887,2.865-1.094,6.718,1.771,8.605c0.217,0.144,20.305,13.693,21.506,39.018H38.808c-3.43,0-6.211,2.782-6.211,6.212   S35.378,468,38.808,468h390.385c3.43,0,6.211-2.782,6.211-6.212S432.622,455.575,429.192,455.575z"/></g><text x="0" y="483" fill="#000000" font-size="5px" font-weight="bold" font-family="'Helvetica Neue', Helvetica, Arial-Unicode, Arial, Sans-serif">Created by SBTS</text><text x="0" y="488" fill="#000000" font-size="5px" font-weight="bold" font-family="'Helvetica Neue', Helvetica, Arial-Unicode, Arial, Sans-serif">from the Noun Project</text></svg>